<svg width="17" height="17" viewBox="0 0 17 17" fill="none" xmlns="http://www.w3.org/2000/svg">
<circle cx="8.5" cy="8.5" r="8.5" fill="#E0E0E0"/>
<path d="M11.1893 7.68988H9.30903V5.81066C9.30903 5.36344 8.94668 5 8.49946 5C8.05223 5 7.68879 5.36344 7.68879 5.81066V7.68988H5.80958C5.36235 7.68988 5 8.05332 5 8.50054C5 8.94777 5.36235 9.31121 5.80958 9.31121H7.68879V11.1893C7.68879 11.6366 8.05223 12 8.49946 12C8.94668 12 9.30903 11.6366 9.30903 11.1893V9.31121H11.1893C11.6366 9.31121 12 8.94777 12 8.50054C12 8.05332 11.6366 7.68988 11.1893 7.68988Z" fill="#101739"/>
</svg>
